<svg width="150" height="154" viewBox="0 0 150 154" fill="none" xmlns="http://www.w3.org/2000/svg">
<path d="M127.841 85.0488H96.1365L85.5683 100.318H64.4319L53.8637 85.0488H22.1592" stroke="#E4D5C9" stroke-width="4" stroke-linecap="round" stroke-linejoin="round"/>
<path d="M40.3893 49.9779L22.1592 85.0469V115.586C22.1592 118.286 23.2726 120.875 25.2545 122.784C27.2364 124.693 29.9245 125.766 32.7274 125.766H117.273C120.076 125.766 122.764 124.693 124.746 122.784C126.728 120.875 127.841 118.286 127.841 115.586V85.0469L109.611 49.9779C108.736 48.2819 107.387 46.8546 105.716 45.8565C104.045 44.8584 102.118 44.3291 100.152 44.3281H49.8478C47.8817 44.3291 45.9548 44.8584 44.2839 45.8565C42.613 46.8546 41.2642 48.2819 40.3893 49.9779V49.9779Z" stroke="#E4D5C9" stroke-width="4" stroke-linecap="round" stroke-linejoin="round"/>
<path d="M75 21.3887L75 29.9912" stroke="#E4D5C9" stroke-width="4" stroke-linecap="round"/>
<path d="M93.7549 26.7656L87.4398 32.8486" stroke="#E4D5C9" stroke-width="4" stroke-linecap="round"/>
<path d="M56.2451 26.7656L62.5602 32.8486" stroke="#E4D5C9" stroke-width="4" stroke-linecap="round"/>
</svg>
