<svg width="456" height="180" viewBox="0 0 456 180" fill="none" xmlns="http://www.w3.org/2000/svg">
<path d="M202.559 130.257C257.972 162.46 313.149 170.685 325.8 148.629C338.451 126.573 303.786 82.5867 248.372 50.3833C192.959 18.1802 137.782 9.95442 125.131 32.011C112.48 54.0672 147.146 98.0538 202.559 130.257Z" stroke="#959595" stroke-width="0.5" stroke-miterlimit="10"/>
<path d="M193.07 122.928C238.315 168.47 289.496 190.79 307.388 172.781C325.279 154.772 303.105 103.254 257.86 57.7115C212.616 12.1694 161.434 -10.1509 143.542 7.85826C125.651 25.867 147.825 77.3859 193.07 122.928Z" stroke="#CACACA" stroke-width="0.5" stroke-miterlimit="10"/>
<path d="M27.1029 110.233C18.1618 110.233 11.4 108.321 6.81765 104.496C2.27255 100.671 0 95.0084 0 87.5084C0 79.2584 2.3098 73.2021 6.92941 69.3397C11.549 65.4772 18.3667 63.5459 27.3824 63.5459C36.9941 63.5459 44.0353 65.4584 48.5059 69.2834C52.9765 73.0709 55.2118 78.6584 55.2118 86.0459C55.2118 94.4084 52.8461 100.54 48.1147 104.44C43.3833 108.302 36.3794 110.233 27.1029 110.233ZM25.8735 90.4896H29.2824L30.923 83.2502H24.2171L25.8735 90.4896Z" fill="black"/>
<path d="M57.9151 109.221C57.5798 108.433 57.319 107.44 57.1327 106.24C56.9464 105.04 56.8347 103.802 56.7974 102.527C56.7602 101.215 56.7974 99.9584 56.9092 98.7584C57.0582 97.5584 57.2631 96.5646 57.5239 95.7771C58.0827 95.5521 58.6229 95.1771 59.1445 94.6521C59.7033 94.0896 60.169 93.2084 60.5415 92.0084C60.9141 90.7709 61.1004 89.0459 61.1004 86.8334C61.1004 84.4334 60.8768 82.6334 60.4298 81.4334C60.02 80.1959 59.517 79.3709 58.921 78.9584C58.3621 78.5084 57.8592 78.2834 57.4121 78.2834C57.0768 77.6084 56.8347 76.6897 56.6857 75.5272C56.5366 74.3646 56.4621 73.1272 56.4621 71.8147C56.4994 70.4647 56.6112 69.1709 56.7974 67.9334C56.9837 66.6584 57.2631 65.5709 57.6357 64.6709C60.3925 64.7834 62.87 64.8021 65.068 64.7271C67.3033 64.6521 69.52 64.5396 71.718 64.3896C73.9533 64.2396 76.3749 64.1084 78.9827 63.9959C81.6278 63.8459 84.7386 63.7709 88.3151 63.7709C93.568 63.7709 98.0014 64.2396 101.615 65.1771C105.229 66.0771 107.967 67.7459 109.83 70.1834C111.73 72.5834 112.68 76.0147 112.68 80.4772C112.68 84.3397 111.953 87.4334 110.5 89.7584C109.085 92.0834 107.036 93.7709 104.353 94.8209C101.671 95.8334 98.4484 96.3396 94.6857 96.3396C92.3013 96.3396 90.4013 96.1521 88.9857 95.7771C87.57 95.3646 86.2661 94.4647 85.0739 93.0772L83.9004 94.1459C84.869 95.3084 86.0425 96.2084 87.421 96.8459C88.7994 97.4459 90.5131 97.7834 92.5621 97.8584C92.8974 98.9084 92.8504 99.4386 93.5113 101.25C93.8457 102.167 93.5113 102.375 94.6289 104.625C95.1877 105.75 96.1564 108.038 95.7466 109.125C93.9211 108.975 87.868 108.827 84.6268 108.602C81.4229 108.377 77.7533 108.283 73.618 108.321C71.5317 108.321 69.4827 108.377 67.471 108.49C65.4592 108.602 63.6151 108.715 61.9386 108.827C60.2994 108.977 58.9582 109.108 57.9151 109.221ZM83.9004 84.4146H87.3092L89.5445 80.6459H81.6651L83.9004 84.4146Z" fill="black"/>
<path d="M116.615 109.221C116.317 108.433 116.074 107.44 115.888 106.24C115.702 105.04 115.59 103.802 115.553 102.527C115.553 101.215 115.59 99.9584 115.665 98.7584C115.776 97.5584 115.963 96.5646 116.224 95.7771C116.82 95.5521 117.397 95.1771 117.956 94.6521C118.515 94.0896 118.98 93.2084 119.353 92.0084C119.725 90.7709 122.147 89.0459 122.147 86.8334C122.147 84.4334 119.688 82.6334 119.241 81.4334C118.831 80.1959 118.328 79.3709 117.732 78.9584C117.174 78.5084 116.671 78.2834 116.224 78.2834C115.888 77.6084 115.646 76.6897 115.497 75.5272C115.348 74.3646 115.274 73.1272 115.274 71.8147C115.311 70.4647 115.423 69.1709 115.609 67.9334C115.795 66.6584 116.074 65.5709 116.447 64.6709C117.043 64.7084 118.012 64.7646 119.353 64.8397C120.731 64.8771 122.315 64.9334 124.103 65.0084C125.928 65.0459 127.828 65.0834 129.803 65.1209C131.777 65.1584 133.715 65.1959 135.615 65.2334C137.552 65.2334 139.284 65.2334 140.812 65.2334C144.724 65.2334 149.064 65.1771 153.832 65.0646C158.638 64.9521 163.407 64.8021 168.138 64.6146C168.324 65.3271 168.492 66.3584 168.641 67.7084C168.79 69.0584 168.902 70.5584 168.976 72.2084C169.051 73.8584 169.088 75.5272 169.088 77.2147C169.088 78.9022 169.032 80.4584 168.921 81.8834C168.809 83.2709 168.641 84.3584 168.418 85.1459C166.667 85.3709 164.729 85.5209 162.606 85.5959C160.482 85.6709 158.322 85.6709 156.124 85.5959C153.963 85.5209 151.914 85.3709 149.976 85.1459C149.529 83.3834 149.529 79.3897 149.976 77.6647H143.494V82.2772H148.691V90.0959H143.438V94.7647H149.976C149.529 93.0021 149.529 88.9896 149.976 87.2271C153.106 87.0396 156.31 86.9459 159.588 86.9459C162.867 86.9459 165.922 87.0396 168.753 87.2271C168.865 87.9021 168.958 88.9896 169.032 90.4896C169.107 91.9521 169.144 93.6209 169.144 95.4959C169.144 97.3334 169.107 99.1896 169.032 101.065C168.995 102.94 168.921 104.608 168.809 106.071C168.697 107.533 168.548 108.583 168.362 109.221C164.45 109.146 160.203 108.977 155.621 108.715C151.038 108.49 146.549 108.377 142.153 108.377C139.769 108.377 137.254 108.396 134.609 108.433C132.001 108.508 129.468 108.583 127.009 108.658C124.587 108.771 122.445 108.865 120.582 108.94C118.757 109.052 117.434 109.146 116.615 109.221Z" fill="black"/>
<path d="M172.97 109.221C172.672 108.433 172.43 107.44 172.244 106.24C172.058 105.04 171.946 103.802 171.909 102.527C171.909 101.215 171.946 99.9584 172.02 98.7584C172.132 97.5584 172.318 96.5646 172.579 95.7771C173.175 95.5521 173.753 95.1771 174.311 94.6521C174.87 94.0896 175.336 93.2084 175.709 92.0084C176.081 90.7709 176.267 89.0459 176.267 86.8334C176.267 84.4334 176.044 82.6334 175.597 81.4334C175.187 80.1959 174.684 79.3709 174.088 78.9584C173.529 78.5084 173.026 78.2834 172.579 78.2834C172.244 77.6084 172.002 76.6897 171.853 75.5272C171.704 74.3646 171.629 73.1272 171.629 71.8147C171.666 70.4647 171.778 69.1709 171.964 67.9334C172.151 66.6584 172.43 65.5709 172.803 64.6709C173.846 64.7459 175.057 64.8584 176.435 65.0084C177.851 65.1209 179.285 65.2334 180.738 65.3459C182.228 65.4209 183.607 65.4584 184.873 65.4584C187.593 65.4584 190.443 65.4021 193.423 65.2896C196.441 65.1396 199.943 64.9334 203.929 64.6709C203.333 67.1459 203.091 69.1709 203.203 70.7459C203.352 72.3209 204.041 73.6897 205.27 74.8522C206.5 76.0147 208.4 77.2146 210.97 78.4521L213.954 79.0146L211.697 76.9896C209.35 75.8646 207.636 74.8147 206.556 73.8397C205.512 72.8271 204.954 71.6271 204.879 70.2396C204.805 68.8146 205.047 66.9584 205.606 64.6709C207.208 64.7084 209.014 64.8584 211.026 65.1209C213.075 65.3834 215.404 65.5146 218.011 65.5146C220.321 65.5146 222.408 65.4209 224.27 65.2334C226.17 65.0084 227.884 64.8209 229.411 64.6709C229.747 65.5709 230.008 66.6584 230.194 67.9334C230.38 69.1709 230.473 70.4647 230.473 71.8147C230.473 73.1647 230.399 74.4209 230.25 75.5834C230.101 76.7459 229.877 77.6646 229.579 78.3397C229.132 78.3397 228.61 78.5646 228.014 79.0146C227.456 79.4271 226.971 80.2334 226.561 81.4334C226.152 82.6334 225.947 84.4334 225.947 86.8334C225.947 89.0459 226.133 90.7709 226.506 92.0084C226.878 93.2084 227.344 94.0896 227.903 94.6521C228.461 95.1771 229.039 95.5521 229.635 95.7771C229.896 96.5646 230.063 97.5584 230.138 98.7584C230.25 99.9584 230.287 101.215 230.25 102.527C230.25 103.802 230.157 105.04 229.97 106.24C229.784 107.44 229.542 108.433 229.244 109.221C227.754 109.033 225.872 108.827 223.6 108.602C221.364 108.415 219.036 108.321 216.614 108.321C213.485 108.321 210.449 108.433 207.506 108.658C204.562 108.883 201.377 109.071 197.95 109.221C198.471 106.746 198.676 104.665 198.564 102.977C198.453 101.29 197.95 99.8084 197.056 98.5334C196.161 97.2209 194.82 95.9834 193.032 94.8209L189.629 93.3752L192.138 96.1709C193.74 97.2584 194.913 98.4021 195.659 99.6021C196.404 100.765 196.795 102.133 196.832 103.708C196.907 105.246 196.702 107.083 196.217 109.221C194.988 109.071 193.479 108.883 191.691 108.658C189.94 108.433 187.854 108.321 185.432 108.321C183.159 108.321 180.887 108.433 178.614 108.658C176.379 108.883 174.498 109.071 172.97 109.221Z" fill="black"/>
<path d="M234.013 109.221C233.715 108.433 233.472 107.44 233.286 106.24C233.1 105.04 232.988 103.802 232.951 102.527C232.951 101.215 232.988 99.9584 233.063 98.7584C233.174 97.5584 233.361 96.5646 233.621 95.7771C234.217 95.5521 234.851 95.1771 235.521 94.6521C236.192 94.1271 236.825 93.2646 237.421 92.0646C238.055 90.8646 238.539 89.1771 238.874 87.0021C239.172 85.2021 239.247 83.7396 239.098 82.6146C238.949 81.4521 238.669 80.5709 238.26 79.9709C237.887 79.3334 237.477 78.9021 237.03 78.6771C236.62 78.4146 236.267 78.2834 235.968 78.2834C235.633 77.6084 235.391 76.6897 235.242 75.5272C235.093 74.3646 235.018 73.1272 235.018 71.8147C235.056 70.4647 235.168 69.1709 235.354 67.9334C235.54 66.6584 235.819 65.5709 236.192 64.6709C237.608 64.8209 239.321 64.9896 241.333 65.1771C243.382 65.3646 245.692 65.4584 248.263 65.4584C250.349 65.4584 252.547 65.4209 254.857 65.3459C257.204 65.2709 259.476 65.1771 261.674 65.0646C263.872 64.9521 265.791 64.8209 267.43 64.6709C267.207 66.0959 267.151 67.8771 267.263 70.0146C267.412 72.1521 267.989 74.2146 268.995 76.2021C269.032 74.1397 269.088 72.0771 269.163 70.0146C269.274 67.9146 269.461 66.1334 269.721 64.6709C271.286 64.7459 272.758 64.8584 274.136 65.0084C275.515 65.1209 276.949 65.2334 278.439 65.3459C279.967 65.4209 281.699 65.4584 283.636 65.4584C284.903 65.4584 286.356 65.4209 287.995 65.3459C289.634 65.2334 291.217 65.1209 292.745 65.0084C294.272 64.8584 295.502 64.7459 296.433 64.6709C296.806 65.5709 297.085 66.6584 297.271 67.9334C297.458 69.1709 297.551 70.4647 297.551 71.8147C297.588 73.1272 297.532 74.3646 297.383 75.5272C297.234 76.6897 296.992 77.6084 296.657 78.2834C296.396 78.2834 296.042 78.4146 295.595 78.6771C295.185 78.9021 294.794 79.3334 294.421 79.9709C294.086 80.5709 293.881 81.4334 293.807 82.5584C293.732 83.6459 293.881 85.0897 294.254 86.8897C294.738 89.0647 295.26 90.7709 295.818 92.0084C296.415 93.2084 297.011 94.0896 297.607 94.6521C298.24 95.1771 298.855 95.5521 299.451 95.7771C299.712 96.5646 299.879 97.5584 299.954 98.7584C300.066 99.9584 300.103 101.215 300.066 102.527C300.066 103.802 299.972 105.04 299.786 106.24C299.6 107.44 299.358 108.433 299.06 109.221C297.532 109.071 295.669 108.883 293.471 108.658C291.311 108.433 288.572 108.321 285.257 108.321C282.09 108.321 279.072 108.433 276.204 108.658C273.372 108.883 271.193 109.071 269.666 109.221C269.517 108.433 269.386 107.44 269.274 106.24C269.163 105.04 269.088 103.802 269.051 102.527C269.014 101.215 269.014 99.9584 269.051 98.7584C269.088 97.5584 269.163 96.5646 269.274 95.7771H271.23L270.671 89.4771L267.374 99.0396L256.533 94.2584L255.863 95.7771L261.954 98.5334C262.811 98.9084 263.63 99.3209 264.413 99.7709C265.195 100.183 265.866 100.746 266.424 101.458C266.983 102.171 267.356 103.146 267.542 104.383C267.766 105.583 267.728 107.196 267.43 109.221C266.722 109.146 265.735 109.052 264.468 108.94C263.202 108.865 261.786 108.771 260.221 108.658C258.694 108.583 257.111 108.508 255.471 108.433C253.869 108.358 252.361 108.321 250.945 108.321C246.81 108.321 243.308 108.433 240.439 108.658C237.608 108.883 235.466 109.071 234.013 109.221Z" fill="black"/>
<path d="M303.965 109.221C303.629 108.433 303.369 107.44 303.182 106.24C302.996 105.04 302.884 103.802 302.847 102.527C302.81 101.215 302.847 99.9584 302.959 98.7584C303.108 97.5584 303.313 96.5646 303.573 95.7771C304.132 95.5521 304.691 95.1771 305.25 94.6521C305.846 94.0896 306.33 93.2084 306.703 92.0084C307.075 90.7709 307.262 89.0459 307.262 86.8334C307.262 84.4334 307.038 82.6334 306.591 81.4334C306.144 80.1959 305.622 79.3709 305.026 78.9584C304.468 78.5084 303.983 78.2834 303.573 78.2834C303.238 77.6084 302.977 76.6897 302.791 75.5272C302.605 74.3646 302.512 73.1272 302.512 71.8147C302.549 70.4647 302.661 69.1709 302.847 67.9334C303.071 66.6584 303.387 65.5709 303.797 64.6709C304.915 64.7459 306.349 64.8584 308.1 65.0084C309.851 65.1584 311.695 65.2896 313.632 65.4022C315.607 65.4771 317.432 65.5146 319.109 65.5146C320.972 65.5146 322.89 65.4771 324.865 65.4022C326.839 65.2896 328.702 65.1584 330.453 65.0084C332.204 64.8584 333.638 64.7459 334.756 64.6709C335.128 65.5709 335.408 66.6584 335.594 67.9334C335.78 69.1709 335.873 70.4647 335.873 71.8147C335.873 73.1647 335.799 74.4209 335.65 75.5834C335.501 76.7459 335.259 77.6646 334.923 78.3397C334.365 78.3397 333.806 78.5646 333.247 79.0146C332.688 79.4271 332.222 80.2334 331.85 81.4334C331.477 82.6334 331.291 84.4334 331.291 86.8334C331.291 89.0459 331.477 90.7709 331.85 92.0084C332.26 93.2084 332.744 94.0896 333.303 94.6521C333.862 95.1771 334.421 95.5521 334.979 95.7771C335.277 96.5646 335.482 97.5584 335.594 98.7584C335.706 99.9584 335.743 101.215 335.706 102.527C335.669 103.802 335.557 105.04 335.371 106.24C335.184 107.44 334.923 108.433 334.588 109.221C333.471 109.108 332.036 108.977 330.285 108.827C328.534 108.715 326.672 108.602 324.697 108.49C322.722 108.377 320.804 108.321 318.941 108.321C317.227 108.321 315.421 108.377 313.521 108.49C311.658 108.602 309.87 108.715 308.156 108.827C306.479 108.977 305.082 109.108 303.965 109.221Z" fill="black"/>
<path d="M428.562 109.615C425.582 109.615 422.974 109.558 420.739 109.446C418.503 109.371 416.398 109.277 414.424 109.165C412.449 109.09 410.4 109.033 408.277 108.996C406.153 108.996 403.713 109.052 400.956 109.165C400.658 108.377 400.416 107.402 400.23 106.24C400.044 105.04 399.932 103.783 399.895 102.471C399.895 101.158 399.932 99.9209 400.006 98.7584C400.118 97.5584 400.304 96.5646 400.565 95.7771C401.347 95.5521 402.018 95.1396 402.577 94.5396C403.136 93.9021 403.564 92.9271 403.862 91.6146C404.16 90.3021 404.309 88.5209 404.309 86.2709C404.309 84.1334 404.123 82.5021 403.75 81.3771C403.415 80.2521 402.968 79.4646 402.409 79.0146C401.85 78.5646 401.236 78.2834 400.565 78.1709C400.193 77.0834 399.932 75.7146 399.783 74.0646C399.634 72.3771 399.634 70.6709 399.783 68.9459C399.969 67.1834 400.304 65.6834 400.789 64.4459C403.173 64.6709 405.427 64.7834 407.55 64.7834C409.711 64.7834 411.928 64.7459 414.2 64.6709C416.473 64.5584 418.95 64.4646 421.633 64.3896C424.315 64.2771 427.389 64.2209 430.853 64.2209C438.751 64.2209 444.787 65.8709 448.959 69.1709C453.169 72.4709 455.274 77.7584 455.274 85.0334C455.274 87.4709 455.05 89.8896 454.603 92.2896C454.194 94.6521 453.43 96.8834 452.312 98.9834C451.232 101.046 449.686 102.883 447.674 104.496C445.662 106.071 443.092 107.327 439.962 108.265C436.87 109.165 433.07 109.615 428.562 109.615ZM426.047 90.2084H429.456L431.692 82.9521H423.812L426.047 90.2084Z" fill="black"/>
<path d="M340.473 109.164C340.175 108.377 339.933 107.383 339.746 106.183C339.56 104.983 339.448 103.745 339.411 102.47C339.411 101.158 339.448 99.9017 339.523 98.7017C339.635 97.5017 339.821 96.5079 340.082 95.7204C340.678 95.4954 341.255 95.1204 341.814 94.5954C342.373 94.0329 342.839 93.1517 343.211 91.9517C343.584 90.7142 343.77 88.9892 343.77 86.7767C343.77 84.3767 343.546 82.5767 343.099 81.3767C342.69 80.1392 342.187 79.3142 341.59 78.9017C341.032 78.4517 340.529 78.2267 340.082 78.2267C339.746 77.5517 339.504 76.6329 339.355 75.4704C339.206 74.3079 339.132 73.0704 339.132 71.7579C339.169 70.4079 339.281 69.1142 339.467 67.8767C339.653 66.6017 339.933 65.5142 340.305 64.6142C341.348 64.6892 342.559 64.8017 343.938 64.9517C345.353 65.0642 346.788 65.1767 348.241 65.2892C349.731 65.3642 351.109 65.4017 352.376 65.4017C355.095 65.4017 357.945 65.3454 360.926 65.2329C363.943 65.0829 367.445 64.8767 371.432 64.6142C370.836 67.0892 370.593 69.1142 370.705 70.6892C370.854 72.2642 371.543 73.6329 372.773 74.7954C374.002 75.9579 375.902 77.1579 378.473 78.3954L381.456 78.9579L379.199 76.9329C376.852 75.8079 375.139 74.7579 374.058 73.7829C373.015 72.7704 372.456 71.5704 372.382 70.1829C372.307 68.7579 372.549 66.9017 373.108 64.6142C374.71 64.6517 376.517 64.8017 378.529 65.0642C380.578 65.3267 382.906 65.4579 385.514 65.4579C387.824 65.4579 389.91 65.3642 391.773 65.1767C393.673 64.9517 395.387 64.7642 396.914 64.6142C397.249 65.5142 397.51 66.6017 397.696 67.8767C397.883 69.1142 397.976 70.4079 397.976 71.7579C397.976 73.1079 397.901 74.3642 397.752 75.5267C397.603 76.6892 397.38 77.6079 397.082 78.2829C396.635 78.2829 396.113 78.5079 395.517 78.9579C394.958 79.3704 394.474 80.1767 394.064 81.3767C393.654 82.5767 393.449 84.3767 393.449 86.7767C393.449 88.9892 393.636 90.7142 394.008 91.9517C394.381 93.1517 394.846 94.0329 395.405 94.5954C395.964 95.1204 396.541 95.4954 397.138 95.7204C397.398 96.5079 397.566 97.5017 397.641 98.7017C397.752 99.9017 397.79 101.158 397.752 102.47C397.752 103.745 397.659 104.983 397.473 106.183C397.287 107.383 397.044 108.377 396.746 109.164C395.256 108.977 393.375 108.77 391.102 108.545C388.867 108.358 386.539 108.264 384.117 108.264C380.988 108.264 377.951 108.377 375.008 108.602C372.065 108.827 368.88 109.014 365.452 109.164C365.974 106.689 366.179 104.608 366.067 102.92C365.955 101.233 365.452 99.7517 364.558 98.4767C363.664 97.1642 362.323 95.9267 360.535 94.7642L357.131 93.3184L359.641 96.1142C361.242 97.2017 362.416 98.3454 363.161 99.5454C363.906 100.708 364.297 102.077 364.335 103.652C364.409 105.189 364.204 107.027 363.72 109.164C362.49 109.014 360.982 108.827 359.193 108.602C357.442 108.377 355.356 108.264 352.935 108.264C350.662 108.264 348.39 108.377 346.117 108.602C343.882 108.827 342 109.014 340.473 109.164Z" fill="black"/>
<path d="M133.312 137.61C131.472 137.61 130.067 137.106 129.095 136.099C127.791 134.862 127.139 133.081 127.139 130.755C127.139 128.382 127.791 126.601 129.095 125.411C130.067 124.403 131.472 123.899 133.312 123.899C135.151 123.899 136.557 124.403 137.529 125.411C138.827 126.601 139.476 128.382 139.476 130.755C139.476 133.081 138.827 134.862 137.529 136.099C136.557 137.106 135.151 137.61 133.312 137.61ZM135.853 134.13C136.476 133.339 136.787 132.214 136.787 130.755C136.787 129.302 136.473 128.18 135.844 127.389C135.221 126.592 134.377 126.193 133.312 126.193C132.247 126.193 131.397 126.589 130.762 127.38C130.128 128.171 129.811 129.296 129.811 130.755C129.811 132.214 130.128 133.339 130.762 134.13C131.397 134.921 132.247 135.316 133.312 135.316C134.377 135.316 135.224 134.921 135.853 134.13Z" fill="black"/>
<path d="M161.98 132.592H159.247V137.25H156.575V124.295H162.18C163.473 124.295 164.503 124.629 165.271 125.297C166.04 125.965 166.424 126.999 166.424 128.399C166.424 129.929 166.04 131.01 165.271 131.643C164.503 132.275 163.406 132.592 161.98 132.592ZM163.237 129.894C163.586 129.583 163.761 129.091 163.761 128.417C163.761 127.743 163.583 127.263 163.228 126.976C162.879 126.688 162.387 126.545 161.753 126.545H159.247V130.359H161.753C162.387 130.359 162.882 130.204 163.237 129.894Z" fill="black"/>
<path d="M192.376 131.59H186.124V134.921H193.249V137.25H183.496V124.295H192.935V126.589H186.124V129.34H192.376V131.59Z" fill="black"/>
<path d="M220.729 137.25H218.04L212.784 128.048V137.25H210.278V124.295H213.098L218.223 133.339V124.295H220.729V137.25Z" fill="black"/>
<path d="M240.683 137.25H238.177V124.295H242.089L244.429 134.481L246.751 124.295H250.619V137.25H248.113V128.487C248.113 128.235 248.116 127.884 248.122 127.433C248.128 126.976 248.131 126.624 248.131 126.378L245.695 137.25H243.084L240.665 126.378C240.665 126.624 240.668 126.976 240.674 127.433C240.68 127.884 240.683 128.235 240.683 128.487V137.25Z" fill="black"/>
<path d="M267.884 124.295H270.555V137.25H267.884V124.295Z" fill="black"/>
<path d="M298.455 137.25H295.765L290.509 128.048V137.25H288.003V124.295H290.823L295.949 133.339V124.295H298.455V137.25Z" fill="black"/>
<path d="M321.49 137.25H315.946V124.295H321.49C322.288 124.307 322.952 124.4 323.481 124.576C324.384 124.875 325.114 125.423 325.673 126.22C326.121 126.864 326.427 127.562 326.59 128.312C326.753 129.062 326.834 129.776 326.834 130.456C326.834 132.179 326.491 133.638 325.804 134.833C324.873 136.444 323.435 137.25 321.49 137.25ZM323.49 127.6C323.077 126.896 322.259 126.545 321.036 126.545H318.557V135H321.036C322.305 135 323.19 134.37 323.691 133.11C323.964 132.419 324.101 131.596 324.101 130.641C324.101 129.322 323.898 128.309 323.49 127.6Z" fill="black"/>
</svg>
