<svg width="20" height="20" viewBox="0 0 20 20" fill="none" xmlns="http://www.w3.org/2000/svg">
<g id="Icon/Person">
<path id="Vector (Stroke)" fill-rule="evenodd" clip-rule="evenodd" d="M3.2359 13.1909C4.10452 12.3464 5.27897 11.875 6.5 11.875H13.5C14.721 11.875 15.8955 12.3464 16.7641 13.1909C17.6333 14.036 18.125 15.186 18.125 16.3889V18.3333C18.125 18.6785 17.8452 18.9583 17.5 18.9583C17.1548 18.9583 16.875 18.6785 16.875 18.3333V16.3889C16.875 15.529 16.5238 14.7007 15.8928 14.0872C15.2611 13.473 14.4007 13.125 13.5 13.125H6.5C5.5993 13.125 4.73892 13.473 4.10725 14.0872C3.47617 14.7007 3.125 15.529 3.125 16.3889V18.3333C3.125 18.6785 2.84518 18.9583 2.5 18.9583C2.15482 18.9583 1.875 18.6785 1.875 18.3333V16.3889C1.875 15.186 2.36668 14.036 3.2359 13.1909Z" fill="#818181"/>
<path id="Vector (Stroke)_2" fill-rule="evenodd" clip-rule="evenodd" d="M9.99967 2.29199C8.04367 2.29199 6.45801 3.87765 6.45801 5.83366C6.45801 7.78967 8.04367 9.37533 9.99967 9.37533C11.9557 9.37533 13.5413 7.78967 13.5413 5.83366C13.5413 3.87765 11.9557 2.29199 9.99967 2.29199ZM5.20801 5.83366C5.20801 3.18729 7.35331 1.04199 9.99967 1.04199C12.646 1.04199 14.7913 3.18729 14.7913 5.83366C14.7913 8.48002 12.646 10.6253 9.99967 10.6253C7.35331 10.6253 5.20801 8.48002 5.20801 5.83366Z" fill="#818181"/>
</g>
</svg>
